# AST/ASF file generated using VICON BodyLanguage
# -----------------------------------------------
:version 1.10
:name VICON
:units
  mass 1.0
  length 0.45
  angle deg
:documentation
   .ast/.asf automatically generated from VICON data using
   VICON BodyBuilder and BodyLanguage model FoxedUp or BRILLIANT.MOD
:root
   order TX TY TZ RX RY RZ
   axis XYZ
   position 0 0 0  
   orientation 0 0 0 
:bonedata
  begin
     id 1 
     name lhipjoint
     direction 0.707368 -0.647095 0.284426 
     length 2.60678 
     axis 0 0 0  XYZ
  end
  begin
     id 2 
     name lfemur
     direction 0.34202 -0.939693 0  
     length 6.63812  
     axis 0 0 20  XYZ
    dof rx ry rz
    limits (-160.0 20.0)
           (-70.0 70.0)
           (-60.0 70.0)
  end
  begin
     id 3 
     name ltibia
     direction 0.34202 -0.939693 0   
     length 7.51178   
     axis 0 0 20   XYZ
    dof rx
    limits (-10.0 170.0)
  end
  begin
     id 4 
     name lfoot
     direction 0.121251 -0.333133 0.935051   
     length 1.83716   
     axis -90 7.62852e-016 20   XYZ
    dof rx rz
    limits (-45.0 90.0)
           (-70.0 20.0)
  end
  begin
     id 5 
     name ltoes
     direction 1.53611e-011 -4.21962e-011 1   
     length 0.916133   
     axis -90 7.62852e-016 20   XYZ
    dof rx
    limits (-90.0 20.0)
  end
  begin
     id 6 
     name rhipjoint
     direction -0.692419 -0.660507 0.290321   
     length 2.55385  
     axis 0 0 0  XYZ 
  end
  begin
     id 7 
     name rfemur
     direction -0.34202 -0.939693 0   
     length 7.29079   
     axis 0 0 -20   XYZ
    dof rx ry rz
    limits (-160.0 20.0)
           (-70.0 70.0)
           (-70.0 60.0)
  end
  begin
     id 8 
     name rtibia
     direction -0.34202 -0.939693 0   
     length 7.47143   
     axis 0 0 -20   XYZ
    dof rx
    limits (-10.0 170.0)
 end
 begin
     id 9 
     name rfoot
     direction -0.119907 -0.329441 0.936532   
     length 1.79439  
     axis -90 -7.62852e-016 -20   XYZ
    dof rx rz
    limits (-45.0 90.0)
           (-20.0 70.0)
  end
  begin
     id 10 
     name rtoes
     direction -1.53571e-011 -4.21961e-011 1   
     length 0.896039   
     axis -90 -7.62852e-016 -20   XYZ
    dof rx
    limits (-90.0 20.0)
  end
  begin
     id 11 
     name lowerback
     direction 0.0367721 0.992912 -0.113016   
     length 1.73542   
     axis 0 0 0   XYZ
    dof rx ry rz
    limits (-20.0 45.0)
           (-30.0 30.0)
           (-30.0 30.0)
  end
  begin
     id 12 
     name upperback
     direction -0.000314626 0.990678 0.136227   
     length 1.7514   
     axis 0 0 0   XYZ
    dof rx ry rz
    limits (-20.0 45.0)
           (-30.0 30.0)
           (-30.0 30.0)
  end
  begin
     id 13 
     name thorax
     direction -0.0226159 0.981151 0.191917   
     length 1.71471   
     axis 0 0 0   XYZ
    dof rx ry rz
    limits (-20.0 45.0)
           (-30.0 30.0)
           (-30.0 30.0)
  end
  begin
     id 14 
     name lowerneck
     direction 0.0219333 0.998071 0.0580739   
     length 1.65882   
     axis 0 0 0   XYZ
    dof rx ry rz
    limits (-20.0 45.0)
           (-30.0 30.0)
           (-30.0 30.0)
  end
  begin
     id 15 
     name upperneck
     direction 0.0384529 0.980058 -0.194957   
     length 1.6612   
     axis 0 0 0   XYZ
    dof rx ry rz
    limits (-20.0 45.0)
           (-30.0 30.0)
           (-30.0 30.0)
  end
  begin
     id 16
     name head
     direction 0.00592123 0.997421 -0.0715234  
     length 1.68077  
     axis 0 0 0   XYZ
    dof rx ry rz
    limits (-20.0 45.0)
           (-30.0 30.0)
           (-30.0 30.0)
  end
  begin
     id 17 
     name lclavicle
     direction 0.904803 0.417826 0.0821728  
     length 3.42227  
     axis 0 0 0   XYZ
    dof ry rz
    limits (-20.0 10.0)
           (0.0 20.0)
  end
  begin
     id 18 
     name lhumerus
     direction 1 -4.48965e-011 -2.68786e-027   
     length 5.11878   
     axis -180 -30 -90   XYZ
    dof rx ry rz
    limits (-60.0 90.0)
           (-90.0 90.0)
           (-90.0 90.0)
  end
  begin
     id 19
     name lradius
     direction 1 -4.48965e-011 2.61168e-028   
     length 3.59971   
     axis -180 -30 -90   XYZ
    dof rx
    limits (-10.0 170.0)
  end
  begin
     id 20
     name lwrist
     direction 1 -4.48965e-011 1.58672e-027   
     length 1.79985   
     axis -1.65735e-015 90 90   XYZ
    dof ry
    limits (-180.0 0.0)
 end
  begin
     id 21 
     name lhand
     direction 1 -4.48942e-011 3.17344e-027   
     length 0.62877   
     axis -2.02492e-015 90 90   XYZ
    dof rx rz
    limits (-90.0 90.0)
           (-45.0 45.0)
  end
  begin
     id 22 
     name lfingers
     direction 1 -4.49011e-011 6.34687e-027   
     length 0.506931   
     axis -4.04985e-015 90 90   XYZ
    dof rx
    limits (0.0 90.0)
  end
  begin
     id 23
     name lthumb
     direction 0.707107 -6.34982e-011 0.707107   
     length 0.727854   
     axis -90 45 2.85299e-015   XYZ
    dof rx rz
    limits (-45.0 45.0)
           (-45.0 45.0)
  end
  begin
     id 24 
     name rclavicle
     direction -0.945647 0.32488 0.0143075   
     length 3.52737  
     axis 0 0 0   XYZ 
    dof ry rz
    limits (-10.0 20.0)
           (-20.0 0.0)
  end
  begin
     id 25 
     name rhumerus
     direction -1 -4.48962e-011 1.92182e-027  
     length 5.4902   
     axis -180 30 90   XYZ
    dof rx ry rz
    limits (-90.0 60.0)
           (-90.0 90.0)
           (-90.0 90.0)
  end
  begin
     id 26 
     name rradius
     direction -1 -4.48967e-011 -5.97193e-028   
     length 3.20659   
     axis -180 30 90   XYZ
    dof rx
    limits (-10.0 170.0)
  end
  begin
     id 27 
     name rwrist
     direction -1 -4.48964e-011 1.58672e-027   
     length 1.6033   
     axis -1.65735e-015 -90 -90   XYZ
    dof ry
    limits (-180.0 0.0)
  end
  begin
     id 28
     name rhand
     direction -1 -4.49006e-011 3.17344e-027   
     length 0.691885   
     axis -2.02492e-015 -90 -90   XYZ
    dof rx rz
    limits (-90.0 90.0)
           (-45.0 45.0)
  end
  begin
     id 29
     name rfingers
     direction -1 -4.48908e-011 6.34687e-027   
     length 0.557815   
     axis -4.04985e-015 -90 -90   XYZ
    dof rx
    limits (0.0 90.0)
  end
  begin
     id 30
     name rthumb
     direction -0.707107 -6.34999e-011 0.707107   
     length 0.800915   
     axis -90 -45 -2.85299e-015   XYZ
    dof rx rz
    limits (-45.0 45.0)
           (-45.0 45.0)
  end
:hierarchy
  begin
    root lhipjoint rhipjoint lowerback
    lhipjoint lfemur
    lfemur ltibia
    ltibia lfoot
    lfoot ltoes
    rhipjoint rfemur
    rfemur rtibia
    rtibia rfoot
    rfoot rtoes
    lowerback upperback
    upperback thorax
    thorax lowerneck lclavicle rclavicle
    lowerneck upperneck
    upperneck head
    lclavicle lhumerus
    lhumerus lradius
    lradius lwrist
    lwrist lhand lthumb
    lhand lfingers
    rclavicle rhumerus
    rhumerus rradius
    rradius rwrist
    rwrist rhand rthumb
    rhand rfingers
  end

#!OML:ASF I:\Actors\actors\Patient Classification 1\Patient 1\Session 1\Subject1.ASF
:FULLY-SPECIFIED
:DEGREES
170
root 0.076835 17.5107 8.45794 9.86292 -0.0354561 -8.25515
lowerback -1.16483 2.18241 5.88995
upperback -6.85449 3.11666 0.64674
thorax -6.22807 1.24347 -2.73877
lowerneck -5.72104 -6.23882 -3.20994
upperneck 29.1946 -10.8901 8.52183
head 11.0134 -4.42527 2.4092
rclavicle -2.98177e-015 -1.03368e-014
rhumerus -41.9099 -28.9083 -69.6083
rradius 19.0003
rwrist 51.8256
rhand 5.92548 -31.4734
rfingers 7.12502
rthumb 31.2523 -58.8265
lclavicle -2.98177e-015 -1.03368e-014
lhumerus -25.1282 11.483 74.305
lradius 17.218
lwrist -41.7413
lhand -14.3696 -15.4517
lfingers 7.12502
lthumb 11.7727 14.1974
rfemur -6.22117 20.1316 23.9054
rtibia 5.73946
rfoot -13.4696 -23.5048
rtoes 2.14229
lfemur 2.45845 -43.4228 -10.6906
ltibia -3.48824
lfoot -20.4154 51.5225
ltoes 8.14296
171
root 0.071909 17.5107 8.4497 9.82172 -0.0660032 -8.30641
lowerback -1.10153 2.20581 5.88735
upperback -6.6932 3.15027 0.742702
thorax -6.09353 1.27043 -2.63734
lowerneck -5.36434 -6.20034 -3.20392
upperneck 28.657 -10.7508 8.45562
head 10.7203 -4.39711 2.40822
rclavicle 1.82882e-014 -3.57812e-015
rhumerus -41.61 -28.8265 -69.7033
rradius 19.0152
rwrist 51.8474
rhand 5.8797 -31.4843
rfingers 7.12502
rthumb 31.2087 -58.8458
lclavicle 1.82882e-014 -3.57812e-015
lhumerus -23.9277 11.2858 74.4485
lradius 17.3754
lwrist -42.0033
lhand -14.0671 -14.3526
lfingers 7.12502
lthumb 12.0645 15.2796
rfemur -6.35244 19.9465 23.9679
rtibia 5.98445
rfoot -13.4805 -23.284
rtoes 2.03588
lfemur 2.40358 -43.1528 -10.5632
ltibia -3.46219
lfoot -20.0548 51.3316
ltoes 7.65195
172
root 0.0688992 17.5111 8.44275 9.77654 -0.075781 -8.31922
lowerback -1.04019 2.20909 5.88004
upperback -6.53399 3.15538 0.814834
thorax -5.96182 1.28245 -2.55731
lowerneck -5.32007 -6.1215 -3.47499
upperneck 28.6533 -10.697 8.82368
head 10.745 -4.36213 2.59538
rclavicle 1.61761e-014 7.95139e-016
rhumerus -41.3325 -28.8449 -69.7587
rradius 18.9946
rwrist 51.9835
rhand 5.89634 -31.4334
rfingers 7.12502
rthumb 31.2245 -58.7918
lclavicle 1.61761e-014 7.95139e-016
lhumerus -22.8648 10.8494 74.6471
lradius 17.3828
lwrist -40.6473
lhand -14.931 -14.6608
lfingers 7.12502
lthumb 11.2313 15.0186
rfemur -6.40817 19.8176 23.9905
rtibia 6.11563
rfoot -13.5285 -23.1169
rtoes 2.2548
lfemur 2.33877 -42.8205 -10.4847
ltibia -3.43092
lfoot -19.703 51.0677
ltoes 7.27582
173
root 0.0669084 17.5119 8.43595 9.72349 -0.0865206 -8.26455
lowerback -0.931471 2.1795 5.81129
upperback -6.37487 3.11731 0.865511
thorax -5.8625 1.27437 -2.4664
lowerneck -5.21444 -6.07801 -3.18257
upperneck 28.3475 -10.5717 8.5738
head 10.5657 -4.31387 2.47091
rclavicle -1.66979e-014 -3.18055e-015
rhumerus -40.9726 -28.8244 -69.9258
rradius 18.9541
rwrist 52.0185
rhand 5.87505 -31.4062
rfingers 7.12502
rthumb 31.2043 -58.7685
lclavicle -1.66979e-014 -3.18055e-015
lhumerus -21.9059 10.5498 74.7528
lradius 17.0944
lwrist -38.3082
lhand -16.7023 -16.9446
lfingers 7.12502
lthumb 9.52263 12.8202
rfemur -6.4357 19.7281 23.9371
rtibia 6.21552
rfoot -13.5599 -23.0226
rtoes 2.32163
lfemur 2.30701 -42.6011 -10.5245
ltibia -3.39301
lfoot -19.4616 50.8836
ltoes 7.09159
174
root 0.0649376 17.5139 8.42837 9.68024 -0.128886 -8.1699
lowerback -0.781772 2.1456 5.70315
upperback -6.23174 3.07548 0.902468
thorax -5.80496 1.26426 -2.36993
lowerneck -5.31934 -6.02358 -3.00309
upperneck 28.2966 -10.4711 8.42136
head 10.54 -4.26304 2.39364
rclavicle 1.6847e-014 1.19271e-015
rhumerus -40.5674 -28.7172 -70.1767
rradius 18.9194
rwrist 51.9732
rhand 5.84879 -31.5105
rfingers 7.12502
rthumb 31.1792 -58.8776
lclavicle 1.6847e-014 1.19271e-015
lhumerus -21.1918 9.17934 75.2286
lradius 18.0764
lwrist -37.9778
lhand -15.5513 -14.1067
lfingers 7.12502
lthumb 10.633 15.6043
rfemur -6.50081 19.6786 23.8256
rtibia 6.35639
rfoot -13.6003 -22.9554
rtoes 2.29126
lfemur 2.27137 -42.4572 -10.622
ltibia -3.32732
lfoot -19.351 50.7741
ltoes 7.00691
175
root 0.0628917 17.5168 8.42136 9.65495 -0.185849 -8.09144
lowerback -0.657267 2.09523 5.57201
upperback -6.09893 3.01115 0.976373
thorax -5.74869 1.24479 -2.2206
lowerneck -5.46667 -5.93742 -3.0857
upperneck 28.4234 -10.4052 8.62176
head 10.6291 -4.21067 2.48399
rclavicle -3.23025e-016 1.51076e-014
rhumerus -40.1621 -28.5222 -70.4257
rradius 18.8913
rwrist 51.9215
rhand 5.92768 -31.5776
rfingers 7.12502
rthumb 31.2544 -58.9303
lclavicle -3.23025e-016 1.51076e-014
lhumerus -20.5789 8.31037 75.5899
lradius 18.4684
lwrist -36.3899
lhand -16.0539 -13.6959
lfingers 7.12502
lthumb 10.1481 16.0393
rfemur -6.58586 19.6658 23.7247
rtibia 6.49693
rfoot -13.6435 -22.8965
rtoes 2.3764
lfemur 2.18871 -42.2455 -10.6629
ltibia -3.24699
lfoot -19.1441 50.6219
ltoes 6.80788
176
root 0.060756 17.5192 8.41554 9.64422 -0.212785 -8.09339
lowerback -0.713014 2.02594 5.44935
upperback -5.86943 2.90742 1.12437
thorax -5.49249 1.21435 -1.98831
lowerneck -5.23372 -5.83123 -2.68727
upperneck 27.8102 -10.1532 8.29739
head 10.2929 -4.1158 2.33136
rclavicle 1.43125e-014 5.96354e-015
rhumerus -39.5369 -28.2534 -70.7561
rradius 18.8005
rwrist 51.8509
rhand 6.03256 -31.563
rfingers 7.12502
rthumb 31.3543 -58.8963
lclavicle 1.43125e-014 5.96354e-015
lhumerus -19.831 8.31615 75.8422
lradius 18.1241
lwrist -34.0234
lhand -18.041 -16.2406
lfingers 7.12502
lthumb 8.23077 13.579
rfemur -6.67397 19.6464 23.7228
rtibia 6.63131
rfoot -13.6553 -22.8568
rtoes 2.38742
lfemur 2.04723 -41.9538 -10.5558
ltibia -3.16451
lfoot -19.0055 50.3613
ltoes 6.72426
177
root 0.0596285 17.5205 8.4104 9.64773 -0.274317 -8.12453
lowerback -0.943721 1.97419 5.32096
upperback -5.53758 2.81016 1.28476
thorax -5.02838 1.19385 -1.73233
lowerneck -5.6671 -5.74641 -2.80743
upperneck 28.0085 -10.0852 8.47329
head 10.4638 -4.0572 2.41022
rclavicle 1.69961e-014 1.39149e-014
rhumerus -38.6873 -27.8933 -71.2339
rradius 18.6448
rwrist 51.8275
rhand 5.99826 -31.5316
rfingers 7.12502
rthumb 31.3217 -58.8713
lclavicle 1.69961e-014 1.39149e-014
lhumerus -19.0228 7.77769 76.3921
lradius 18.5832
lwrist -33.3718
lhand -17.9482 -14.5837
lfingers 7.12502
lthumb 8.32028 15.2324
rfemur -6.78202 19.5894 23.7433
rtibia 6.76656
rfoot -13.6234 -22.7559
rtoes 2.24704
lfemur 1.92134 -41.7166 -10.4391
ltibia -3.08004
lfoot -19.0683 50.1641
ltoes 6.77942
178
root 0.0599406 17.5209 8.40656 9.65685 -0.393917 -8.15483
lowerback -1.06546 1.94994 5.25149
upperback -5.29299 2.76007 1.38052
thorax -4.71119 1.18608 -1.58422
lowerneck -5.64181 -5.71245 -2.42089
upperneck 27.6062 -9.96678 8.16267
head 10.2617 -4.01049 2.24471
rclavicle 2.45996e-015 2.18663e-014
rhumerus -38.0072 -27.4542 -71.7217
rradius 18.4906
rwrist 51.9445
rhand 5.99415 -31.4727
rfingers 7.12502
rthumb 31.3177 -58.8131
lclavicle 2.45996e-015 2.18663e-014
lhumerus -18.3 7.63806 76.7509
lradius 18.2158
lwrist -31.0912
lhand -19.3 -16.4569
lfingers 7.12502
lthumb 7.01553 13.4069
rfemur -6.90122 19.4944 23.7519
rtibia 6.91283
rfoot -13.5768 -22.562
rtoes 1.99242
lfemur 1.88927 -41.5893 -10.3956
ltibia -3.04149
lfoot -19.1784 50.1259
ltoes 6.83012
179
root 0.0612454 17.5211 8.40434 9.65558 -0.499959 -8.16057
lowerback -0.652437 1.96294 5.35573
upperback -5.43898 2.81375 1.32522
thorax -5.09067 1.19457 -1.71928
lowerneck -5.28074 -5.69793 -2.32406
upperneck 27.4989 -9.98085 8.28666
head 10.1554 -4.00963 2.28162
rclavicle -2.25496e-014 5.52621e-014
rhumerus -38.1028 -26.9882 -71.9593
rradius 18.4083
rwrist 52.1582
rhand 6.10278 -31.4501
rfingers 7.12502
rthumb 31.4213 -58.7704
lclavicle -2.25496e-014 5.52621e-014
lhumerus -18.2344 6.54841 77.1821
lradius 18.6018
lwrist -29.4372
lhand -18.7617 -13.6919
lfingers 7.12502
lthumb 7.53517 16.1539
rfemur -6.98971 19.3906 23.7391
rtibia 7.05268
rfoot -13.5593 -22.3648
rtoes 1.76275
lfemur 1.88684 -41.4354 -10.4002
ltibia -3.01685
lfoot -19.2028 50.0709
ltoes 6.94645
180
root 0.0632257 17.5224 8.40223 9.63524 -0.58452 -8.1429
lowerback -0.92281 1.87798 5.16277
upperback -5.09865 2.66755 1.49392
thorax -4.60196 1.15164 -1.41743
lowerneck -5.41994 -5.62229 -2.69877
upperneck 27.3852 -9.9075 8.65914
head 10.1756 -3.97426 2.47982
rclavicle 4.72051e-014 5.56597e-015
rhumerus -37.2273 -26.3756 -72.4592
rradius 18.2219
rwrist 52.5319
rhand 6.19517 -31.454
rfingers 7.12502
rthumb 31.5093 -58.7572
lclavicle 4.72051e-014 5.56597e-015
lhumerus -17.499 6.86817 77.6624
lradius 18.1094
lwrist -26.193
lhand -19.4925 -14.08
lfingers 7.12502
lthumb 6.82974 15.7899
rfemur -7.05341 19.2897 23.7011
rtibia 7.18587
rfoot -13.5707 -22.1796
rtoes 1.71264
lfemur 1.90111 -41.2856 -10.4488
ltibia -2.98566
lfoot -19.0221 50.0294
ltoes 6.82654
